<svg width="286" height="81" viewBox="0 0 286 81" version="1.1" xmlns="http://www.w3.org/2000/svg" xmlns:xlink="http://www.w3.org/1999/xlink">
<g id="Canvas" fill="none">
<g id="main-block-en">
<path d="M 0.751926 67.7469C 1.17413 67.748 1.52182 67.4172 1.52294 66.995C 1.52406 66.5728 1.17818 66.2251 0.755977 66.224C 0.348855 66.2229 0.00112575 66.5688 2.72671e-06 66.991C -0.00112029 67.4132 0.344805 67.7458 0.751926 67.7469ZM 1.30277 76.0718L 1.32214 68.7889L 0.191251 68.7859L 0.171879 76.0688L 1.30277 76.0718Z" transform="translate(0.982422 0.693054)" fill="white"/>
<path d="M 12.6209 76.1019L 12.6345 70.9903C 12.6387 69.407 11.8416 68.6359 10.3186 68.6318C 9.23299 68.629 8.23612 69.2596 7.72184 69.8614L 7.72465 68.8059L 6.59376 68.8029L 6.57438 76.0858L 7.70528 76.0888L 7.71943 70.7661C 8.1432 70.1792 8.98904 69.6386 9.87868 69.6409C 10.8588 69.6436 11.5061 70.0524 11.5027 71.3341L 11.49 76.0989L 12.6209 76.1019Z" transform="translate(0.982422 0.693054)" fill="white"/>
<path d="M 27.1048 76.3214C 28.9896 76.3264 29.9723 75.3489 29.9756 74.1275C 29.9831 71.2928 25.4718 72.3363 25.4761 70.7379C 25.4778 70.0896 26.0973 69.5936 27.0925 69.5963C 28.0274 69.5987 28.8255 69.9929 29.2614 70.5218L 29.7912 69.7391C 29.2047 69.1495 28.3314 68.6798 27.095 68.6765C 25.3609 68.6719 24.3783 69.6343 24.3753 70.7652C 24.3681 73.4642 28.8795 72.3906 28.8748 74.1548C 28.8728 74.8785 28.2683 75.4047 27.1525 75.4017C 26.1573 75.3991 25.2388 74.9141 24.7578 74.3549L 24.1675 75.1676C 24.9043 75.9536 25.9136 76.3182 27.1048 76.3214Z" transform="translate(0.982422 0.693054)" fill="white"/>
<path d="M 40.8697 76.1771L 40.889 68.8941L 39.7581 68.8911L 39.7439 74.244C 39.3201 74.8309 38.4744 75.3414 37.5847 75.339C 36.6046 75.3364 35.9573 74.9577 35.9607 73.676L 35.9734 68.881L 34.8425 68.878L 34.8288 74.0198C 34.8246 75.6031 35.6218 76.344 37.1448 76.3481C 38.2304 76.351 39.1819 75.7805 39.7415 75.1487L 39.7388 76.174L 40.8697 76.1771Z" transform="translate(0.982422 0.693054)" fill="white"/>
<path d="M 49.3551 76.3806C 50.682 76.3841 51.4676 75.8434 52.0274 75.1211L 51.2753 74.4254C 50.7911 75.0725 50.172 75.3725 49.4181 75.3705C 47.865 75.3663 46.9032 74.1575 46.9075 72.5441C 46.9118 70.9307 47.88 69.742 49.4331 69.7462C 50.187 69.7482 50.8045 70.0363 51.2852 70.701L 52.041 70.0094C 51.485 69.2842 50.7024 68.7393 49.3755 68.7357C 47.2041 68.73 45.7371 70.3847 45.7314 72.5409C 45.7256 74.7123 47.1838 76.3748 49.3551 76.3806Z" transform="translate(0.982422 0.693054)" fill="white"/>
<path d="M 62.6868 76.2351L 62.7005 71.0933C 62.7047 69.51 61.9075 68.7691 60.3846 68.765C 59.2838 68.7621 58.287 69.3927 57.7727 69.9945L 57.7829 66.1646L 56.652 66.1616L 56.6252 76.219L 57.7561 76.222L 57.7703 70.8992C 58.2091 70.3123 59.055 69.7717 59.9295 69.7741C 60.9096 69.7767 61.5721 70.1554 61.5687 71.4371L 61.5559 76.2321L 62.6868 76.2351Z" transform="translate(0.982422 0.693054)" fill="white"/>
<path d="M 82.2976 76.2872L 84.639 69.0105L 83.4629 69.0073L 81.6682 74.8079L 79.7687 68.9975L 78.8036 68.9949L 76.8732 74.7951L 75.1094 68.9851L 73.9333 68.982L 76.236 76.2711L 77.3669 76.2741L 79.2823 70.4287L 81.1667 76.2842L 82.2976 76.2872Z" transform="translate(0.982422 0.693054)" fill="white"/>
<path d="M 94.6375 76.3201L 94.6508 71.314C 94.6555 69.5498 93.3757 68.8528 91.8377 68.8487C 90.6465 68.8455 89.7105 69.2351 88.9243 70.0472L 89.45 70.8327C 90.1002 70.1408 90.8097 69.8261 91.6843 69.8284C 92.7398 69.8312 93.5224 70.3912 93.5198 71.3713L 93.5163 72.6831C 92.93 72.003 92.1015 71.6842 91.1063 71.6815C 89.8699 71.6782 88.556 72.4437 88.5517 74.0722C 88.5475 75.6555 89.8571 76.4883 91.0936 76.4916C 92.0737 76.4942 92.9039 76.1496 93.5088 75.4877L 93.5066 76.3171L 94.6375 76.3201ZM 91.5028 75.6784C 90.4473 75.6756 89.7103 75.0102 89.7127 74.0904C 89.7152 73.1555 90.4558 72.494 91.5113 72.4968C 92.3105 72.499 93.0787 72.8026 93.5144 73.4069L 93.5107 74.779C 93.0718 75.381 92.302 75.6806 91.5028 75.6784Z" transform="translate(0.982422 0.693054)" fill="white"/>
<path d="M 99.5055 79.1829C 99.7164 79.2438 100.093 79.29 100.335 79.2906C 101.3 79.2781 102.04 78.873 102.48 77.8186L 106.152 69.0677L 104.915 69.0644L 102.487 75.0291L 100.075 69.0515L 98.8539 69.0483L 101.88 76.4147L 101.395 77.5142C 101.137 78.1166 100.805 78.2816 100.307 78.2803C 100.126 78.2798 99.8548 78.2339 99.6892 78.158L 99.5055 79.1829Z" transform="translate(0.982422 0.693054)" fill="white"/>
<path d="M 119.07 76.566C 119.734 76.5678 120.141 76.3728 120.429 76.1022L 120.099 75.2569C 119.948 75.4224 119.646 75.5573 119.329 75.5564C 118.832 75.5551 118.591 75.1624 118.593 74.6196L 118.605 70.096L 120.083 70.0999L 120.085 69.1048L 118.608 69.1008L 118.613 67.1105L 117.482 67.1074L 117.477 69.0978L 116.27 69.0946L 116.268 70.0898L 117.474 70.093L 117.461 74.8578C 117.458 75.9435 118 76.5632 119.07 76.566Z" transform="translate(0.982422 0.693054)" fill="white"/>
<path d="M 130.741 76.4161L 130.754 71.2743C 130.759 69.6911 129.961 68.9501 128.438 68.946C 127.338 68.9431 126.341 69.5738 125.827 70.1755L 125.837 66.3456L 124.706 66.3426L 124.679 76.4L 125.81 76.403L 125.824 71.0803C 126.263 70.4934 127.109 69.9528 127.983 69.9551C 128.963 69.9577 129.626 70.3364 129.623 71.6181L 129.61 76.4131L 130.741 76.4161Z" transform="translate(0.982422 0.693054)" fill="white"/>
<path d="M 139.301 76.6198C 140.492 76.623 141.474 76.2335 142.199 75.5117L 141.658 74.7714C 141.084 75.3579 140.239 75.6874 139.409 75.6852C 137.841 75.6811 136.879 74.5325 136.792 73.1601L 142.688 73.1758L 142.689 72.8893C 142.695 70.7029 141.402 68.9805 139.201 68.9747C 137.12 68.9691 135.608 70.669 135.602 72.78C 135.596 75.0569 137.145 76.6141 139.301 76.6198ZM 141.574 72.3435L 136.794 72.3308C 136.858 71.2151 137.63 69.9054 139.183 69.9095C 140.842 69.9139 141.562 71.2578 141.574 72.3435Z" transform="translate(0.982422 0.693054)" fill="white"/>
<path d="M 155.561 76.4821L 155.587 66.4247L 154.457 66.4217L 154.43 76.4791L 155.561 76.4821Z" transform="translate(0.982422 0.693054)" fill="white"/>
<path d="M 161.412 68.1743C 161.835 68.1754 162.182 67.8446 162.183 67.4224C 162.185 67.0002 161.839 66.6524 161.416 66.6513C 161.009 66.6502 160.662 66.9961 160.66 67.4183C 160.659 67.8405 161.005 68.1732 161.412 68.1743ZM 161.963 76.4992L 161.983 69.2162L 160.852 69.2132L 160.832 76.4961L 161.963 76.4992Z" transform="translate(0.982422 0.693054)" fill="white"/>
<path d="M 170.152 79.4764C 171.931 79.4811 173.622 78.7316 173.629 76.3191L 173.648 69.2472L 172.517 69.2442L 172.514 70.345C 171.928 69.5442 171.054 69.0594 170.074 69.0568C 168.159 69.0517 166.829 70.4957 166.822 72.8329C 166.816 75.1851 168.154 76.6061 170.054 76.6111C 171.08 76.6139 171.971 76.0583 172.5 75.3209L 172.498 76.3613C 172.493 77.9596 171.361 78.5447 170.155 78.5415C 169.114 78.5387 168.391 78.2654 167.79 77.54L 167.215 78.3829C 168.072 79.2296 168.916 79.4731 170.152 79.4764ZM 170.328 75.6167C 168.866 75.6128 167.994 74.4343 167.999 72.836C 168.003 71.2226 168.88 70.0639 170.343 70.0678C 171.248 70.0702 172.121 70.6153 172.511 71.2497L 172.503 74.4313C 172.109 75.0635 171.233 75.6191 170.328 75.6167Z" transform="translate(0.982422 0.693054)" fill="white"/>
<path d="M 184.971 76.5603L 184.984 71.4186C 184.988 69.8353 184.191 69.0943 182.668 69.0903C 181.568 69.0874 180.571 69.718 180.056 70.3198L 180.067 66.4898L 178.936 66.4868L 178.909 76.5442L 180.04 76.5472L 180.054 71.2245C 180.493 70.6376 181.339 70.097 182.213 70.0993C 183.193 70.1019 183.856 70.4807 183.852 71.7624L 183.84 76.5573L 184.971 76.5603Z" transform="translate(0.982422 0.693054)" fill="white"/>
<path d="M 192.083 76.7602C 192.747 76.762 193.155 76.567 193.442 76.2964L 193.112 75.4511C 192.961 75.6166 192.659 75.7515 192.342 75.7506C 191.845 75.7493 191.605 75.3566 191.606 74.8138L 191.618 70.2902L 193.096 70.2942L 193.099 69.299L 191.621 69.295L 191.626 67.3047L 190.495 67.3017L 190.49 69.292L 189.284 69.2888L 189.281 70.284L 190.487 70.2872L 190.475 75.052C 190.472 76.1377 191.013 76.7574 192.083 76.7602Z" transform="translate(0.982422 0.693054)" fill="white"/>
<path d="M 205.176 68.2907C 205.598 68.2918 205.945 67.961 205.947 67.5388C 205.948 67.1166 205.602 66.7688 205.18 66.7677C 204.773 66.7666 204.425 67.1125 204.424 67.5347C 204.423 67.9569 204.768 68.2896 205.176 68.2907ZM 205.726 76.6156L 205.746 69.3326L 204.615 69.3296L 204.596 76.6125L 205.726 76.6156Z" transform="translate(0.982422 0.693054)" fill="white"/>
<path d="M 213.305 76.8167C 215.189 76.8217 216.172 75.8442 216.175 74.6228C 216.183 71.788 211.672 72.8315 211.676 71.2332C 211.678 70.5848 212.297 70.0889 213.292 70.0915C 214.227 70.094 215.025 70.4882 215.461 71.0171L 215.991 70.2344C 215.405 69.6448 214.531 69.175 213.295 69.1717C 211.561 69.1671 210.578 70.1296 210.575 71.2604C 210.568 73.9595 215.079 72.8858 215.075 74.65C 215.073 75.3738 214.468 75.9 213.352 75.897C 212.357 75.8943 211.439 75.4094 210.958 74.8502L 210.367 75.6629C 211.104 76.4489 212.113 76.8135 213.305 76.8167Z" transform="translate(0.982422 0.693054)" fill="white"/>
<path d="M 229.062 74.7023L 229.071 71.4001C 229.465 70.7679 230.356 70.2274 231.245 70.2298C 232.723 70.2337 233.595 71.4423 233.59 73.0557C 233.586 74.6691 232.708 75.858 231.231 75.8541C 230.341 75.8517 229.453 75.3367 229.062 74.7023ZM 229.057 76.6776L 229.06 75.592C 229.601 76.3323 230.489 76.8624 231.514 76.8651C 233.414 76.8702 234.76 75.4262 234.766 73.0588C 234.773 70.7367 233.435 69.2253 231.535 69.2203C 230.539 69.2176 229.664 69.6978 229.073 70.4954L 229.084 66.6202L 227.953 66.6172L 227.926 76.6746L 229.057 76.6776Z" transform="translate(0.982422 0.693054)" fill="white"/>
<path d="M 242.796 76.8951C 245.013 76.901 246.404 75.1857 246.41 73.0747C 246.416 70.9637 245.033 69.2562 242.816 69.2503C 240.6 69.2444 239.208 70.9446 239.202 73.0556C 239.197 75.1666 240.579 76.8892 242.796 76.8951ZM 242.799 75.8848C 241.246 75.8807 240.375 74.5515 240.379 73.0587C 240.383 71.581 241.261 70.2564 242.814 70.2605C 244.367 70.2647 245.223 71.5939 245.219 73.0716C 245.215 74.5643 244.352 75.889 242.799 75.8848Z" transform="translate(0.982422 0.693054)" fill="white"/>
<path d="M 252.391 76.7397L 252.404 71.5828C 252.738 70.9956 253.689 70.4252 254.383 70.427C 254.564 70.4275 254.699 70.4429 254.835 70.4734L 254.838 69.3124C 253.843 69.3098 252.997 69.8654 252.407 70.6329L 252.41 69.4567L 251.279 69.4537L 251.26 76.7367L 252.391 76.7397Z" transform="translate(0.982422 0.693054)" fill="white"/>
<path d="M 265.299 76.774L 265.313 71.6624C 265.317 70.0791 264.52 69.308 262.997 69.3039C 261.911 69.3011 260.914 69.9317 260.4 70.5335L 260.403 69.478L 259.272 69.475L 259.252 76.7579L 260.383 76.7609L 260.397 71.4382C 260.821 70.8513 261.667 70.3107 262.557 70.313C 263.537 70.3157 264.184 70.7245 264.181 72.0062L 264.168 76.771L 265.299 76.774Z" transform="translate(0.982422 0.693054)" fill="white"/>
<path d="M 35.9368 50.307L 35.9368 41.0321L 11.4511 41.0321L 11.4511 29.828L 35.4174 29.828L 35.4174 20.5531L 11.4511 20.5531L 11.4511 10.0911L 35.9368 10.0911L 35.9368 0.816188L 0.914816 0.816188L 0.914816 50.307L 35.9368 50.307Z" transform="translate(0.982422 0.693054)" fill="white"/>
<path d="M 88.4703 50.307L 88.4703 0.816188L 77.934 0.816188L 77.934 31.9056L 55.0065 0.816188L 44.1735 0.816188L 44.1735 50.307L 54.7097 50.307L 54.7097 18.0304L 78.305 50.307L 88.4703 50.307Z" transform="translate(0.982422 0.693054)" fill="white"/>
<path d="M 133.251 50.307L 133.251 41.0321L 108.765 41.0321L 108.765 29.828L 132.731 29.828L 132.731 20.5531L 108.765 20.5531L 108.765 10.0911L 133.251 10.0911L 133.251 0.816188L 98.2286 0.816188L 98.2286 50.307L 133.251 50.307Z" transform="translate(0.982422 0.693054)" fill="white"/>
<path d="M 181.555 50.307L 170.425 31.4604C 175.767 30.199 181.258 25.5245 181.258 16.769C 181.258 7.5683 174.951 0.816188 164.637 0.816188L 141.487 0.816188L 141.487 50.307L 152.024 50.307L 152.024 32.7218L 159.74 32.7218L 169.46 50.307L 181.555 50.307ZM 163.079 23.4469L 152.024 23.4469L 152.024 10.0911L 163.079 10.0911C 167.309 10.0911 170.499 12.6138 170.499 16.769C 170.499 20.9241 167.309 23.4469 163.079 23.4469Z" transform="translate(0.982422 0.693054)" fill="white"/>
<path d="M 213.132 51.2715C 222.11 51.2715 229.159 47.5616 234.205 41.9225L 234.205 22.9275L 210.609 22.9275L 210.609 32.1282L 223.669 32.1282L 223.669 38.0641C 221.665 39.9191 217.51 41.8483 213.132 41.8483C 204.154 41.8483 197.625 34.9478 197.625 25.5987C 197.625 16.2496 204.154 9.34908 213.132 9.34908C 218.4 9.34908 222.63 12.317 224.856 15.8044L 233.611 11.0557C 229.901 5.19393 223.446 0 213.132 0C 198.663 0 186.792 9.94267 186.792 25.5987C 186.792 41.1805 198.663 51.2715 213.132 51.2715Z" transform="translate(0.982422 0.693054)" fill="white"/>
<path d="M 265.53 50.307L 265.53 30.0506L 284.45 0.816188L 272.43 0.816188L 260.261 20.7015L 247.944 0.816188L 235.924 0.816188L 254.993 30.0506L 254.993 50.307L 265.53 50.307Z" transform="translate(0.982422 0.693054)" fill="white"/>
</g>
</g>
</svg>

