<svg width="291" height="81" viewBox="0 0 291 81" version="1.1" xmlns="http://www.w3.org/2000/svg" xmlns:xlink="http://www.w3.org/1999/xlink">
<g id="Canvas" fill="none">
<g id="main-block-ua">
<path d="M 4.00957 75.9895L 4.03036 68.1725L 6.67353 68.1795L 6.67682 66.9423L 0.00329093 66.9245L 0 68.1618L 2.62442 68.1688L 2.60363 75.9858L 4.00957 75.9895Z" transform="translate(0.47168 0.509216)" fill="white"/>
<path d="M 19.3126 76.0302L 19.3292 69.8066C 19.335 67.6133 17.7439 66.7468 15.8318 66.7417C 14.3509 66.7378 13.1874 67.2221 12.2099 68.2317L 12.8634 69.2083C 13.6718 68.3481 14.5539 67.9568 15.6411 67.9597C 16.9533 67.9632 17.9263 68.6594 17.923 69.8778L 17.9187 71.5087C 17.1899 70.6632 16.1599 70.2668 14.9227 70.2635C 13.3855 70.2594 11.7521 71.2111 11.7467 73.2357C 11.7414 75.204 13.3696 76.2394 14.9068 76.2435C 16.1252 76.2467 17.1574 75.8183 17.9094 74.9955L 17.9067 76.0265L 19.3126 76.0302ZM 15.4156 75.2325C 14.1034 75.229 13.187 74.4018 13.1901 73.2583C 13.1932 72.096 14.1139 71.2737 15.4261 71.2771C 16.4196 71.2798 17.3747 71.6573 17.9163 72.4085L 17.9118 74.1144C 17.3662 74.8628 16.4091 75.2352 15.4156 75.2325Z" transform="translate(0.47168 0.509216)" fill="white"/>
<path d="M 33.8471 76.0689L 29.8299 71.1093L 33.8525 67.0146L 32.0716 67.0098L 27.2973 71.8149L 27.3102 66.9972L 25.9042 66.9934L 25.8801 76.0477L 27.2861 76.0514L 27.2929 73.4645L 28.7966 71.9876L 32.0475 76.0641L 33.8471 76.0689Z" transform="translate(0.47168 0.509216)" fill="white"/>
<path d="M 49.2466 76.1098L 49.2573 72.0607L 53.9813 72.0733L 53.9705 76.1224L 55.3764 76.1262L 55.4005 67.0719L 53.9946 67.0682L 53.9846 70.8361L 49.2606 70.8235L 49.2706 67.0556L 47.8647 67.0519L 47.8406 76.1061L 49.2466 76.1098Z" transform="translate(0.47168 0.509216)" fill="white"/>
<path d="M 69.0001 76.1624L 69.0167 69.9388C 69.0225 67.7455 67.4314 66.8789 65.5194 66.8739C 64.0384 66.8699 62.8749 67.3542 61.8974 68.3639L 62.5509 69.3404C 63.3593 68.4803 64.2414 68.089 65.3287 68.0918C 66.6409 68.0953 67.6138 68.7915 67.6106 70.01L 67.6062 71.6409C 66.8774 70.7954 65.8474 70.399 64.6102 70.3957C 63.073 70.3916 61.4396 71.3433 61.4342 73.3679C 61.429 75.3362 63.0571 76.3715 64.5943 76.3756C 65.8127 76.3789 66.8449 75.9504 67.5969 75.1276L 67.5942 76.1586L 69.0001 76.1624ZM 65.1031 75.3647C 63.7909 75.3612 62.8745 74.5339 62.8776 73.3904C 62.8807 72.2282 63.8014 71.4058 65.1136 71.4093C 66.1072 71.412 67.0622 71.7894 67.6038 72.5407L 67.5993 74.2466C 67.0537 74.995 66.0966 75.3673 65.1031 75.3647Z" transform="translate(0.47168 0.509216)" fill="white"/>
<path d="M 80.0285 76.4167C 82.4093 76.423 84.0638 74.5903 84.0716 71.6659C 84.0794 68.7228 82.4346 66.9189 80.0538 66.9125C 78.7791 66.9091 77.6526 67.5622 76.9941 68.479L 76.9977 67.1293L 75.5917 67.1256L 75.5585 79.6291L 76.9644 79.6328L 76.9772 74.8151C 77.7056 75.8294 78.7913 76.4134 80.0285 76.4167ZM 79.6757 75.1598C 78.5697 75.1568 77.4655 74.479 76.9802 73.6904L 76.9911 69.6038C 77.4806 68.8178 78.5883 68.1646 79.6943 68.1675C 81.5127 68.1724 82.596 69.6562 82.5907 71.662C 82.5853 73.6678 81.4941 75.1646 79.6757 75.1598Z" transform="translate(0.47168 0.509216)" fill="white"/>
<path d="M 93.9992 76.4538C 96.7548 76.4612 98.4851 74.3287 98.4921 71.7043C 98.4991 69.0799 96.7801 66.957 94.0245 66.9497C 91.2688 66.9424 89.5386 69.056 89.5316 71.6805C 89.5246 74.3049 91.2436 76.4465 93.9992 76.4538ZM 94.0025 75.1979C 92.0717 75.1927 90.9888 73.5402 90.9938 71.6844C 90.9987 69.8473 92.0903 68.2005 94.0211 68.2057C 95.952 68.2108 97.0161 69.8633 97.0112 71.7004C 97.0063 73.5562 95.9334 75.203 94.0025 75.1979Z" transform="translate(0.47168 0.509216)" fill="white"/>
<path d="M 103.447 78.5598L 104.853 78.5635L 104.859 76.2578L 111.701 76.276L 111.695 78.5817L 113.101 78.5854L 113.11 75.0425L 112.06 75.0397L 112.081 67.2227L 105.783 67.2059L 105.19 71.6659C 104.826 74.3456 104.3 74.9441 103.456 75.0918L 103.447 78.5598ZM 107.016 68.4464L 110.672 68.4562L 110.654 75.0359L 105.274 75.0216C 105.932 74.4985 106.366 73.5436 106.595 71.8383L 107.016 68.4464Z" transform="translate(0.47168 0.509216)" fill="white"/>
<path d="M 119.434 76.2965L 122.707 72.2374L 123.343 72.8764L 123.334 76.3069L 124.74 76.3106L 124.749 72.8802L 125.388 72.2445L 128.639 76.321L 130.438 76.3258L 126.402 71.3661L 130.444 67.2715L 128.663 67.2668L 124.753 71.2305L 124.764 67.2564L 123.358 67.2527L 123.347 71.2455L 119.459 67.2423L 117.678 67.2375L 121.678 71.3536L 117.635 76.2918L 119.434 76.2965Z" transform="translate(0.47168 0.509216)" fill="white"/>
<path d="M 135.339 79.8818C 135.601 79.9575 136.07 80.015 136.37 80.0158C 137.57 80.0002 138.489 79.4965 139.037 78.1858L 143.602 67.3065L 142.065 67.3024L 139.046 74.7178L 136.047 67.2864L 134.529 67.2824L 138.291 76.4404L 137.688 77.8073C 137.367 78.5563 136.954 78.7614 136.336 78.7597C 136.111 78.7591 135.773 78.702 135.567 78.6077L 135.339 79.8818Z" transform="translate(0.47168 0.509216)" fill="white"/>
<path d="M 152.786 76.6102C 154.436 76.6146 155.412 75.9423 156.108 75.0444L 155.211 74.2172C 154.609 75.0216 153.801 75.4507 152.864 75.4482C 151.102 75.4435 149.962 74.222 149.76 72.4031L 154.334 72.4152L 154.337 71.1967L 149.782 71.1846C 150.012 69.4231 151.158 68.2639 152.883 68.2685C 153.82 68.271 154.625 68.6855 155.223 69.512L 156.125 68.6895C 155.434 67.7879 154.461 67.1104 152.811 67.106C 150.112 67.0989 148.288 69.1561 148.281 71.8367C 148.274 74.5361 150.087 76.603 152.786 76.6102Z" transform="translate(0.47168 0.509216)" fill="white"/>
<path d="M 164.88 76.4174L 164.901 68.6004L 167.544 68.6074L 167.547 67.3702L 160.874 67.3524L 160.87 68.5897L 163.495 68.5967L 163.474 76.4137L 164.88 76.4174Z" transform="translate(0.47168 0.509216)" fill="white"/>
<path d="M 173.14 67.3851L 173.116 76.4393L 177.915 76.4521C 179.77 76.457 180.767 75.1849 180.771 73.6853C 180.775 72.2044 179.804 70.9083 177.929 70.9033L 174.536 70.8943L 174.546 67.3888L 173.14 67.3851ZM 177.776 72.1401C 178.807 72.1429 179.33 72.8004 179.328 73.6814C 179.326 74.5812 178.78 75.2172 177.768 75.2145L 174.525 75.2058L 174.533 72.1315L 177.776 72.1401Z" transform="translate(0.47168 0.509216)" fill="white"/>
<path d="M 190.651 76.7109C 192.301 76.7153 193.277 76.0431 193.973 75.1451L 193.038 74.2803C 192.436 75.0848 191.667 75.4576 190.729 75.4551C 188.799 75.45 187.603 73.9472 187.608 71.9413C 187.614 69.9355 188.817 68.4578 190.748 68.4629C 191.685 68.4654 192.453 68.8236 193.051 69.6501L 193.99 68.7902C 193.299 67.8886 192.326 67.2112 190.676 67.2068C 187.977 67.1996 186.153 69.2568 186.146 71.9375C 186.139 74.6369 187.952 76.7037 190.651 76.7109Z" transform="translate(0.47168 0.509216)" fill="white"/>
<path d="M 201.039 76.5136L 203.26 73.014L 205.735 73.0206L 205.726 76.5261L 207.132 76.5298L 207.156 67.4756L 202.375 67.4628C 200.538 67.458 199.504 68.6924 199.5 70.2296C 199.496 71.748 200.468 72.7816 201.817 72.9539L 199.389 76.5092L 201.039 76.5136ZM 202.514 71.7748C 201.483 71.772 200.941 71.1332 200.943 70.2334C 200.946 69.3336 201.529 68.6978 202.522 68.7005L 205.746 68.709L 205.738 71.7834L 202.514 71.7748Z" transform="translate(0.47168 0.509216)" fill="white"/>
<path d="M 226.265 76.8056C 227.914 76.81 228.891 76.1378 229.587 75.2398L 228.652 74.375C 228.05 75.1795 227.28 75.5524 226.343 75.5499C 224.412 75.5447 223.216 74.0419 223.222 72.0361C 223.227 70.0303 224.431 68.5525 226.361 68.5577C 227.299 68.5602 228.066 68.9184 228.664 69.7448L 229.604 68.885C 228.912 67.9833 227.939 67.3059 226.29 67.3015C 223.59 67.2943 221.767 69.3515 221.759 72.0322C 221.752 74.7316 223.565 76.7985 226.265 76.8056Z" transform="translate(0.47168 0.509216)" fill="white"/>
<path d="M 240.383 76.6183C 242.051 76.6227 243.029 75.6318 243.033 74.1696C 243.035 73.1386 242.307 72.1806 241.389 71.9532C 242.158 71.7115 242.854 70.9823 242.857 69.895C 242.86 68.5266 241.907 67.568 240.313 67.5638L 235.327 67.5505L 235.303 76.6047L 240.383 76.6183ZM 240.105 75.3803L 236.712 75.3713L 236.72 72.5781L 240.113 72.5871C 241.069 72.5897 241.573 73.2659 241.571 73.997C 241.569 74.8593 241.005 75.3827 240.105 75.3803ZM 240.06 71.3498L 236.723 71.3409L 236.73 68.7915L 240.066 68.8003C 240.929 68.8026 241.415 69.3101 241.413 70.0974C 241.411 70.8097 240.941 71.3521 240.06 71.3498Z" transform="translate(0.47168 0.509216)" fill="white"/>
<path d="M 250.153 66.2965C 250.678 66.2979 251.11 65.8866 251.111 65.3617C 251.113 64.8368 250.683 64.4045 250.158 64.4031C 249.652 64.4018 249.22 64.8318 249.218 65.3567C 249.217 65.8816 249.647 66.2951 250.153 66.2965ZM 250.838 76.6461L 250.862 67.5918L 249.456 67.5881L 249.432 76.6423L 250.838 76.6461Z" transform="translate(0.47168 0.509216)" fill="white"/>
<path d="M 260.447 76.6716L 260.468 68.8546L 263.111 68.8616L 263.114 67.6244L 256.441 67.6067L 256.438 68.8439L 259.062 68.8509L 259.041 76.6679L 260.447 76.6716Z" transform="translate(0.47168 0.509216)" fill="white"/>
<path d="M 266.808 76.9135C 268.552 76.9181 269.53 75.646 269.951 72.2729L 270.373 68.8809L 274.028 68.8907L 274.007 76.7077L 275.413 76.7114L 275.437 67.6572L 269.139 67.6404L 268.546 72.1004C 268.182 74.7801 267.655 75.7535 266.811 75.7513L 266.808 76.9135Z" transform="translate(0.47168 0.509216)" fill="white"/>
<path d="M 285.925 76.9643C 288.68 76.9717 290.411 74.8392 290.418 72.2148C 290.424 69.5904 288.706 67.4675 285.95 67.4602C 283.194 67.4529 281.464 69.5666 281.457 72.191C 281.45 74.8154 283.169 76.957 285.925 76.9643ZM 285.928 75.7084C 283.997 75.7032 282.914 74.0507 282.919 72.1949C 282.924 70.3578 284.016 68.711 285.947 68.7162C 287.877 68.7213 288.942 70.3738 288.937 72.2109C 288.932 74.0667 287.859 75.7135 285.928 75.7084Z" transform="translate(0.47168 0.509216)" fill="white"/>
<path d="M 36.4469 49.4908L 36.4469 40.2159L 11.9612 40.2159L 11.9612 29.0118L 35.9275 29.0118L 35.9275 19.7369L 11.9612 19.7369L 11.9612 9.27488L 36.4469 9.27488L 36.4469 0L 1.42498 0L 1.42498 49.4908L 36.4469 49.4908Z" transform="translate(0.47168 0.509216)" fill="white"/>
<path d="M 89.203 49.4908L 89.203 0L 78.5926 0L 78.5926 19.4402L 55.2199 19.4402L 55.2199 0L 44.6836 0L 44.6836 49.4908L 55.2199 49.4908L 55.2199 28.715L 78.5926 28.715L 78.5926 49.4908L 89.203 49.4908Z" transform="translate(0.47168 0.509216)" fill="white"/>
<path d="M 133.978 49.4908L 133.978 40.2159L 109.492 40.2159L 109.492 29.0118L 133.459 29.0118L 133.459 19.7369L 109.492 19.7369L 109.492 9.27488L 133.978 9.27488L 133.978 0L 98.9562 0L 98.9562 49.4908L 133.978 49.4908Z" transform="translate(0.47168 0.509216)" fill="white"/>
<path d="M 152.751 49.4908L 152.751 31.9056L 165.365 31.9056C 176.05 31.9056 181.986 24.5599 181.986 15.9528C 181.986 7.27151 176.124 0 165.365 0L 142.215 0L 142.215 49.4908L 152.751 49.4908ZM 163.955 22.6307L 152.751 22.6307L 152.751 9.27488L 163.955 9.27488C 168.11 9.27488 171.227 11.7976 171.227 15.9528C 171.227 20.0337 168.11 22.6307 163.955 22.6307Z" transform="translate(0.47168 0.509216)" fill="white"/>
<path d="M 199.053 49.4908L 199.053 9.27488L 223.539 9.27488L 223.539 0L 188.517 0L 188.517 49.4908L 199.053 49.4908Z" transform="translate(0.47168 0.509216)" fill="white"/>
<path d="M 241.442 49.4908L 241.442 0L 230.906 0L 230.906 49.4908L 241.442 49.4908Z" transform="translate(0.47168 0.509216)" fill="white"/>
<path d="M 261.21 49.4908L 271.004 31.9056L 278.647 31.9056L 278.647 49.4908L 289.183 49.4908L 289.183 0L 266.033 0C 255.719 0 249.412 6.75212 249.412 15.9528C 249.412 24.7083 254.903 29.3828 260.245 30.6442L 249.115 49.4908L 261.21 49.4908ZM 267.591 22.6307C 263.362 22.6307 260.171 20.1079 260.171 15.9528C 260.171 11.7976 263.362 9.27488 267.591 9.27488L 278.647 9.27488L 278.647 22.6307L 267.591 22.6307Z" transform="translate(0.47168 0.509216)" fill="white"/>
</g>
</g>
</svg>

