<svg width="334" height="92" viewBox="0 0 334 92" version="1.1" xmlns="http://www.w3.org/2000/svg" xmlns:xlink="http://www.w3.org/1999/xlink">
<g id="Canvas" fill="none">
<g id="main-block-ru">
<path d="M 11.0108 85.8639L 11.0404 74.7493L 14.7985 74.7593L 14.8032 73.0002L 5.31449 72.9749L 5.30981 74.7341L 9.04133 74.744L 9.01176 85.8586L 11.0108 85.8639Z" transform="translate(0.410156 0.693054)" fill="white"/>
<path d="M 32.7694 85.9218L 32.7929 77.0728C 32.8012 73.9543 30.5389 72.7222 27.8202 72.715C 25.7146 72.7093 24.0602 73.398 22.6704 74.8336L 23.5996 76.222C 24.749 74.999 26.0032 74.4426 27.5491 74.4467C 29.4149 74.4517 30.7982 75.4416 30.7936 77.1741L 30.7874 79.4929C 29.7511 78.2908 28.2867 77.7271 26.5275 77.7224C 24.3419 77.7166 22.0194 79.0698 22.0118 81.9484C 22.0043 84.747 24.3193 86.2192 26.5049 86.225C 28.2374 86.2296 29.705 85.6205 30.7743 84.4505L 30.7704 85.9165L 32.7694 85.9218ZM 27.2284 84.7876C 25.3626 84.7826 24.0597 83.6064 24.064 81.9805C 24.0684 80.328 25.3776 79.1587 27.2434 79.1637C 28.656 79.1674 30.0139 79.7041 30.784 80.7723L 30.7776 83.1978C 30.0018 84.2619 28.641 84.7914 27.2284 84.7876Z" transform="translate(0.410156 0.693054)" fill="white"/>
<path d="M 53.4352 85.9768L 47.7233 78.9249L 53.4428 73.103L 50.9107 73.0962L 44.1224 79.9282L 44.1406 73.0782L 42.1416 73.0729L 42.1073 85.9466L 44.1064 85.952L 44.1162 82.2737L 46.2541 80.1738L 50.8764 85.97L 53.4352 85.9768Z" transform="translate(0.410156 0.693054)" fill="white"/>
<path d="M 79.6745 86.3664C 83.0595 86.3754 85.412 83.7696 85.4231 79.6116C 85.4342 75.427 83.0955 72.862 79.7104 72.853C 77.898 72.8482 76.2963 73.7768 75.3599 75.0803L 75.365 73.1613L 73.366 73.1559L 73.3187 90.934L 75.3177 90.9393L 75.336 84.0893C 76.3716 85.5314 77.9154 86.3617 79.6745 86.3664ZM 79.1728 84.5793C 77.6003 84.5751 76.0302 83.6114 75.3402 82.4901L 75.3557 76.6796C 76.0517 75.5619 77.6267 74.6332 79.1993 74.6374C 81.7847 74.6443 83.325 76.7541 83.3174 79.606C 83.3098 82.458 81.7582 84.5861 79.1728 84.5793Z" transform="translate(0.410156 0.693054)" fill="white"/>
<path d="M 99.5386 86.4192C 103.457 86.4297 105.917 83.3977 105.927 79.6661C 105.937 75.9346 103.493 72.9162 99.5745 72.9058C 95.6565 72.8954 93.1963 75.9007 93.1864 79.6323C 93.1764 83.3638 95.6205 86.4088 99.5386 86.4192ZM 99.5434 84.6334C 96.798 84.6261 95.2583 82.2765 95.2654 79.6378C 95.2723 77.0257 96.8245 74.6843 99.5698 74.6916C 102.315 74.6989 103.828 77.0485 103.821 79.6605C 103.814 82.2993 102.289 84.6407 99.5434 84.6334Z" transform="translate(0.410156 0.693054)" fill="white"/>
<path d="M 114.443 86.139L 119.096 80.3675L 120 81.2762L 119.987 86.1538L 121.986 86.1591L 121.999 81.2815L 122.908 80.3777L 127.53 86.1739L 130.089 86.1807L 124.35 79.1288L 130.096 73.3068L 127.564 73.3001L 122.005 78.936L 122.02 73.2854L 120.021 73.28L 120.006 78.9573L 114.477 73.2653L 111.945 73.2586L 117.634 79.1109L 111.884 86.1322L 114.443 86.139Z" transform="translate(0.410156 0.693054)" fill="white"/>
<path d="M 136.262 89.4755L 138.261 89.4808L 138.27 86.2024L 147.998 86.2283L 147.99 89.5067L 149.989 89.512L 150.002 84.4745L 148.51 84.4705L 148.539 73.3559L 139.583 73.3321L 138.74 79.6735C 138.224 83.4836 137.475 84.3345 136.275 84.5446L 136.262 89.4755ZM 141.338 75.0959L 146.535 75.1097L 146.51 84.4652L 138.861 84.4448C 139.796 83.701 140.412 82.3433 140.739 79.9187L 141.338 75.0959Z" transform="translate(0.410156 0.693054)" fill="white"/>
<path d="M 168.11 86.2818L 168.133 77.4328C 168.142 74.3143 165.879 73.0822 163.161 73.0749C 161.055 73.0693 159.401 73.7579 158.011 75.1936L 158.94 76.582C 160.089 75.359 161.344 74.8026 162.89 74.8067C 164.755 74.8117 166.139 75.8016 166.134 77.5341L 166.128 79.8529C 165.092 78.6507 163.627 78.0871 161.868 78.0824C 159.682 78.0766 157.36 79.4298 157.352 82.3084C 157.345 85.107 159.66 86.5792 161.845 86.585C 163.578 86.5896 165.045 85.9804 166.115 84.8105L 166.111 86.2765L 168.11 86.2818ZM 162.569 85.1476C 160.703 85.1426 159.4 83.9664 159.405 82.3405C 159.409 80.688 160.718 79.5187 162.584 79.5237C 163.996 79.5274 165.354 80.0641 166.125 81.1323L 166.118 83.5578C 165.342 84.6219 163.982 85.1513 162.569 85.1476Z" transform="translate(0.410156 0.693054)" fill="white"/>
<path d="M 183.258 86.6419C 185.363 86.6475 187.097 85.9591 188.38 84.6832L 187.424 83.3746C 186.409 84.4114 184.914 84.9938 183.448 84.9899C 180.676 84.9825 178.976 82.9523 178.823 80.5264L 189.244 80.5541L 189.246 80.0477C 189.256 76.1829 186.972 73.1383 183.08 73.1279C 179.402 73.1181 176.729 76.1229 176.719 79.8544C 176.708 83.8792 179.446 86.6318 183.258 86.6419ZM 187.276 79.0829L 178.826 79.0604C 178.938 77.0883 180.304 74.7731 183.049 74.7804C 185.981 74.7882 187.254 77.1638 187.276 79.0829Z" transform="translate(0.410156 0.693054)" fill="white"/>
<path d="M 202.142 86.3723L 202.171 75.2577L 205.93 75.2677L 205.934 73.5086L 196.446 73.4833L 196.441 75.2425L 200.172 75.2524L 200.143 86.367L 202.142 86.3723Z" transform="translate(0.410156 0.693054)" fill="white"/>
<path d="M 219.528 86.7384C 221.874 86.7446 223.262 85.7888 224.252 84.512L 222.923 83.2824C 222.067 84.4263 220.972 84.9564 219.64 84.9529C 216.894 84.9456 215.194 82.8088 215.202 79.9568C 215.209 77.1049 216.921 75.0038 219.666 75.0111C 220.999 75.0146 222.09 75.5239 222.94 76.699L 224.276 75.4764C 223.293 74.1944 221.91 73.2312 219.564 73.225C 215.726 73.2148 213.133 76.1398 213.123 79.9513C 213.113 83.7894 215.69 86.7282 219.528 86.7384Z" transform="translate(0.410156 0.693054)" fill="white"/>
<path d="M 234.299 86.4578L 237.457 81.482L 240.975 81.4913L 240.962 86.4756L 242.961 86.4809L 242.995 73.6071L 236.199 73.5891C 233.586 73.5821 232.116 75.3374 232.11 77.523C 232.104 79.6819 233.486 81.1516 235.405 81.3965L 231.953 86.4516L 234.299 86.4578ZM 236.395 79.72C 234.93 79.7161 234.159 78.8078 234.162 77.5284C 234.166 76.249 234.994 75.345 236.407 75.3488L 240.992 75.361L 240.98 79.7322L 236.395 79.72Z" transform="translate(0.410156 0.693054)" fill="white"/>
<path d="M 270.165 86.8731C 272.511 86.8793 273.899 85.9235 274.889 84.6467L 273.559 83.4171C 272.704 84.561 271.609 85.0911 270.277 85.0876C 267.531 85.0803 265.831 82.9434 265.839 80.0915C 265.846 77.2396 267.558 75.1384 270.303 75.1457C 271.636 75.1493 272.727 75.6586 273.577 76.8336L 274.913 75.6111C 273.93 74.3291 272.547 73.3659 270.201 73.3597C 266.363 73.3495 263.77 76.2745 263.76 80.086C 263.749 83.9241 266.327 86.8629 270.165 86.8731Z" transform="translate(0.410156 0.693054)" fill="white"/>
<path d="M 290.239 86.6066C 292.612 86.613 294.001 85.204 294.007 83.125C 294.011 81.6591 292.975 80.2969 291.67 79.9736C 292.763 79.63 293.752 78.5932 293.757 77.0472C 293.762 75.1015 292.406 73.7386 290.14 73.7325L 283.051 73.7137L 283.016 86.5874L 290.239 86.6066ZM 289.844 84.8464L 285.02 84.8336L 285.031 80.8622L 289.855 80.875C 291.214 80.8786 291.931 81.8401 291.929 82.8796C 291.925 84.1057 291.124 84.8498 289.844 84.8464ZM 289.78 79.1157L 285.035 79.1031L 285.045 75.4781L 289.789 75.4908C 291.015 75.494 291.706 76.2155 291.703 77.335C 291.701 78.3478 291.032 79.119 289.78 79.1157Z" transform="translate(0.410156 0.693054)" fill="white"/>
<path d="M 308.915 86.9762C 311.021 86.9818 312.755 86.2934 314.038 85.0174L 313.082 83.7088C 312.066 84.7456 310.572 85.328 309.106 85.3241C 306.334 85.3168 304.634 83.2865 304.48 80.8606L 314.902 80.8884L 314.903 80.3819C 314.914 76.5171 312.629 73.4725 308.738 73.4622C 305.06 73.4524 302.386 76.4572 302.376 80.1887C 302.366 84.2134 305.104 86.966 308.915 86.9762ZM 312.933 79.4171L 304.484 79.3947C 304.596 77.4226 305.962 75.1073 308.707 75.1146C 311.639 75.1224 312.912 77.498 312.933 79.4171Z" transform="translate(0.410156 0.693054)" fill="white"/>
<path d="M 327.8 86.7066L 327.829 75.592L 331.587 75.602L 331.592 73.8428L 322.103 73.8176L 322.099 75.5767L 325.83 75.5866L 325.801 86.7012L 327.8 86.7066Z" transform="translate(0.410156 0.693054)" fill="white"/>
<path d="M 20.6273 51.1973C 35.5413 51.1973 46.968 40.8095 46.968 25.5987C 46.968 10.3879 35.5413 0 20.6273 0C 9.72008 0 3.48736 5.93592 0 12.0944L 9.05229 16.5464C 11.1299 12.5396 15.5818 9.34908 20.8499 9.34908C 28.1956 9.34908 33.6864 13.8752 35.5413 20.5531L 12.0202 20.5531L 12.0202 29.828L 35.7639 29.828C 34.1316 36.9511 28.4924 41.8483 20.8499 41.8483C 15.5818 41.8483 11.1299 38.7319 9.05229 34.651L 0 39.0287C 3.48736 45.1872 9.72008 51.1973 20.6273 51.1973Z" transform="translate(0.410156 0.693054)" fill="white"/>
<path d="M 98.9462 50.307L 98.9462 0.816188L 88.3357 0.816188L 88.3357 20.2563L 64.963 20.2563L 64.963 0.816188L 54.4267 0.816188L 54.4267 50.307L 64.963 50.307L 64.963 29.5312L 88.3357 29.5312L 88.3357 50.307L 98.9462 50.307Z" transform="translate(0.410156 0.693054)" fill="white"/>
<path d="M 143.721 50.307L 143.721 41.0321L 119.236 41.0321L 119.236 29.828L 143.202 29.828L 143.202 20.5531L 119.236 20.5531L 119.236 10.0911L 143.721 10.0911L 143.721 0.816188L 108.699 0.816188L 108.699 50.307L 143.721 50.307Z" transform="translate(0.410156 0.693054)" fill="white"/>
<path d="M 162.494 50.307L 162.494 32.7218L 175.108 32.7218C 185.793 32.7218 191.729 25.3761 191.729 16.769C 191.729 8.0877 185.867 0.816188 175.108 0.816188L 151.958 0.816188L 151.958 50.307L 162.494 50.307ZM 173.698 23.4469L 162.494 23.4469L 162.494 10.0911L 173.698 10.0911C 177.853 10.0911 180.97 12.6138 180.97 16.769C 180.97 20.8499 177.853 23.4469 173.698 23.4469Z" transform="translate(0.410156 0.693054)" fill="white"/>
<path d="M 208.796 50.307L 208.796 10.0911L 233.282 10.0911L 233.282 0.816188L 198.26 0.816188L 198.26 50.307L 208.796 50.307Z" transform="translate(0.410156 0.693054)" fill="white"/>
<path d="M 250.814 50.307L 274.41 17.14L 274.41 50.307L 284.946 50.307L 284.946 0.816188L 274.113 0.816188L 251.185 32.796L 251.185 0.816188L 240.649 0.816188L 240.649 50.307L 250.814 50.307Z" transform="translate(0.410156 0.693054)" fill="white"/>
<path d="M 304.647 50.307L 314.441 32.7218L 322.084 32.7218L 322.084 50.307L 332.62 50.307L 332.62 0.816188L 309.47 0.816188C 299.156 0.816188 292.849 7.5683 292.849 16.769C 292.849 25.5245 298.34 30.199 303.682 31.4604L 292.552 50.307L 304.647 50.307ZM 311.028 23.4469C 306.799 23.4469 303.608 20.9241 303.608 16.769C 303.608 12.6138 306.799 10.0911 311.028 10.0911L 322.084 10.0911L 322.084 23.4469L 311.028 23.4469Z" transform="translate(0.410156 0.693054)" fill="white"/>
</g>
</g>
</svg>

