<svg version="1" xmlns="http://www.w3.org/2000/svg" width="266.667" height="266.667" viewBox="0 0 200.000000 200.000000"><path d="M88.1 30.7c-3.1.4-3.3.6-2.7 3.5.3 1.7.6 3.4.6 3.9s3.9.6 8.8.3c9.5-.7 18.3.8 28.5 4.6 5.9 2.2 6.6 3.2 4.4 5.9-.8.9-2.3 3.2-3.5 5.2l-2.2 3.6 5.5 3.7c4.7 3.3 8.4 7.1 10.8 11.3.4.7-2.6.1-7-1.4l-7.6-2.6-26.9 13.4C82.1 89.4 70 95.8 70 96.1c0 .4 6.1 2.8 13.5 5.4 7.4 2.6 13.5 4.9 13.5 5.1 0 .9-38.2 19.4-39 18.9-.4-.3-2.1-3.7-3.6-7.6-2.4-6.1-3-7-4.8-6.5-1.2.3-2.7.6-3.5.6-1 0-1.2.9-.8 3.5 1 6.2 6.9 16.4 13.4 23.5l6.5 7-3.6 5.7c-4.3 6.8-4.6 6.3 7.9 12.4 10.8 5.2 21.4 7.3 33.4 6.6 5.1-.3 9.8-1 10.3-1.5s.7-2.5.3-4.3l-.6-3.4H99.7c-12 0-13.9-.3-21-2.9-4.2-1.5-8-3.2-8.3-3.7-.3-.5 1.1-3.5 3-6.6l3.5-5.7-4.7-3.1c-4.8-3.3-12.7-11.3-11.9-12.1.2-.3 3.5.7 7.3 2.1l6.9 2.7 27.7-13.8c15.3-7.6 27.4-14.1 27-14.5-.4-.3-4.3-1.8-8.7-3.4-4.4-1.5-10.5-3.7-13.4-4.8l-5.5-2 18.7-9.3c10.3-5.2 19.2-9.4 19.6-9.4 1 0 6.1 11.5 6.1 13.7 0 1.2.7 1.4 3.8.8 2-.3 4-1 4.4-1.3.4-.4-.3-3.7-1.6-7.4-2.7-7.6-9.8-18.1-15.3-22.7l-3.6-3 3.8-5.7c4.3-6.6 4.5-6.3-5.5-11.4-9.8-4.9-18.6-7.2-30-7.5-5.8-.2-12-.1-13.9.2z"/><path d="M66 38.2c-8 4.5-14.9 10.1-20.2 16.6C40.9 60.6 34 72.6 34 75.3c0 1.3 6.7 4.6 7.4 3.5.1-.1 1.3-2.7 2.6-5.7 4.2-9.3 11.9-18.1 21.7-24.9l3.2-2.3L72 52c1.7 3.3 3.2 6 3.5 6 .2 0 3.9-1.2 8.2-2.6 6.8-2.3 8.8-2.5 17.7-2.1 5.6.2 11 .7 12.2 1.1 1.6.6 2.3.2 3.2-1.9 2-4.2 1.4-5.3-3-6.7-6.2-1.8-25.2-1.6-30.5.5l-4.1 1.6-2.8-6.5c-1.6-3.5-3.3-6.4-3.9-6.4-.5 0-3.5 1.4-6.5 3.2zM148.8 55.7l-2.7 2.8 4.9 7.3c5.2 7.7 9.3 18.8 10.3 28.1l.6 5.3-6.9-.4c-7.7-.4-8-.2-8 6.1 0 8.3-4.9 19.6-11.8 27.3l-3.5 3.9 2.9 3 2.9 3.1 4.3-4.9c5.3-6 10.8-16.7 12.3-24.1l1.2-5.7 7.5.3 7.5.4-.6-10.4c-.8-15.4-6.8-31.8-15-41.3l-3.2-3.7-2.7 2.9z"/><path d="M56.8 63.9c-5.3 5.9-10.5 16-12.1 23.6L43.6 93H28.7l.6 10.2c.8 15.4 5.3 28.1 13.9 39.7l4 5.3 3.1-3 3-3-3.5-4.9c-6.8-9.2-10.3-18.3-12.3-31.1l-.7-4.2h7.1c7.9 0 7.4.5 8.5-9.1.8-7.2 4.4-15.5 9.6-22.4l4.9-6.4-2-2.6C63.8 60.1 62.5 59 62 59c-.4 0-2.8 2.2-5.2 4.9zM154.9 128.7c-1.9 3.7-5.6 9.1-8.4 12.2-5.6 6.1-14.1 13.1-15.9 13.1-.7 0-2.5-2.6-4-5.8l-2.8-5.9-6 2.5c-8.3 3.3-17.4 4.5-25.3 3.2-3.5-.6-7-1.3-7.8-1.5-1.3-.6-3.7 3.2-3.7 5.9 0 3.8 20.3 5.9 30.8 3.2 3.5-.9 6.8-1.6 7.3-1.6.6 0 2.2 2.6 3.5 5.7 1.4 3.2 2.7 6 2.9 6.2.2.1 2.8-.8 5.7-2.2 12.6-5.8 25.4-18.8 31.9-32.4 1.7-3.5 2.9-6.6 2.7-6.7-1-.6-6-2.6-6.7-2.6-.4 0-2.3 3-4.2 6.7z"/></svg>