<svg xmlns="http://www.w3.org/2000/svg" width="157" height="18" viewBox="0 0 157 18">
    <g fill="#1E1E1E" data-name="Vector">
        <path d="M5.953 16.2h-1.25V2.916H0V1.793h10.656v1.123H5.953V16.2zM23.986 16.2h-1.251V2.916H13.61V16.2h-1.23V1.793h11.605V16.2zM37.05 16.2h-1.574l-5.932-6.782-1.596 1.75V16.2h-1.23V1.793h1.23v7.884l6.945-7.884h1.575l-6.126 6.869L37.05 16.2zM71.28 16.46c-2.661 0-4.66-1.182-5.997-3.543l2.631-1.275a3.87 3.87 0 0 0 1.38 1.512 3.773 3.773 0 0 0 2.05.584c1.093 0 2.028-.317 2.804-.95.777-.649 1.287-1.498 1.532-2.55h-6.903v-2.7h6.838c-.273-.993-.791-1.785-1.553-2.376-.762-.59-1.668-.885-2.718-.885-.733 0-1.41.201-2.028.605a3.86 3.86 0 0 0-1.402 1.49l-2.631-1.296c1.323-2.347 3.322-3.52 5.996-3.52 2.2 0 4.027.698 5.479 2.094 1.452 1.383 2.179 3.168 2.179 5.357s-.727 3.982-2.179 5.379c-1.452 1.382-3.279 2.073-5.479 2.073zM93.217 16.2h-3.084v-6.048h-6.795V16.2h-3.063V1.793h3.063v5.659h6.795v-5.66h3.084V16.2zM105.404 16.2h-10.18V1.793h10.18v2.7h-7.118v3.045h6.967v2.7h-6.967V13.5h7.118v2.7zM110.032 16.2h-3.063V1.793h6.73c1.51 0 2.689.446 3.538 1.339.862.878 1.294 1.98 1.294 3.305 0 1.31-.432 2.412-1.294 3.305-.863.892-2.042 1.339-3.538 1.339h-3.667V16.2zm3.257-7.82c.619 0 1.122-.172 1.51-.518.403-.36.604-.835.604-1.425 0-.59-.201-1.059-.604-1.404-.388-.36-.891-.54-1.51-.54h-3.257V8.38h3.257zM122.663 16.2H119.6V1.793h10.181v2.7h-7.118V16.2zM134.048 16.2h-2.955V1.793h3.063v9.31l6.665-9.31h3.149V16.2h-3.063V6.545l-6.859 9.655zM148.868 16.2h-3.516l3.236-5.486c-.878-.202-1.625-.67-2.244-1.404-.604-.735-.906-1.692-.906-2.873 0-1.368.432-2.484 1.295-3.348.877-.864 2.056-1.296 3.537-1.296H157V16.2h-3.063v-5.12h-2.222l-2.847 5.12zm1.855-7.82h3.214V4.494h-3.214c-.633 0-1.15.18-1.553.54-.403.345-.604.813-.604 1.404 0 .59.201 1.065.604 1.425.403.346.92.519 1.553.519zM60.123 11.67c-.64 1.834-1.92 3.302-3.61 4.266l-.778-1.606-.502.23a6.091 6.091 0 0 1-4.662.229l-.366 1.009c1.646.596 3.382.55 5.028-.046l.777 1.652.502-.23c2.194-1.009 3.794-2.844 4.616-5.092l-1.005-.413zM48.788 2.036l.778 1.605.502-.183a6.091 6.091 0 0 1 4.662-.23l.366-1.009c-1.646-.596-3.382-.596-5.028.046L49.291.614l-.502.229a8.792 8.792 0 0 0-4.57 5.092l1.005.367c.64-1.835 1.92-3.303 3.565-4.266z"/>
        <path d="M56.467 2.036l-.96 1.514.457.275c.731.459 1.325 1.1 1.782 1.789l-2.01-.688-6.993 3.532 3.702 1.33-5.028 2.524a7.501 7.501 0 0 1-.822-1.973l-.96.184c.366 1.697 1.325 3.21 2.697 4.22l-1.006 1.56.457.275C49.246 17.54 50.937 18 52.628 18c.64 0 1.28-.092 1.92-.23l-.23-1.055c-1.873.413-3.838.138-5.484-.825l.96-1.514-.457-.275a6.197 6.197 0 0 1-1.828-1.79l2.01.735 7.085-3.579-3.702-1.33 4.936-2.431a7.5 7.5 0 0 1 .822 1.972l1.052-.23c-.366-1.696-1.326-3.21-2.697-4.22l.96-1.513-.457-.276C55.507.155 53.085-.304 50.754.201l.228 1.009c1.874-.413 3.84-.092 5.485.826z"/>
        <path d="M46.823 14.33a7.841 7.841 0 0 1-2.102-5.184l1.782.092.046-.55c.092-1.652.777-3.166 2.011-4.267l-.731-.78c-1.28 1.193-2.102 2.753-2.285 4.45L43.716 8l-.046.597A9.124 9.124 0 0 0 46 15.064l.823-.734zM58.523 3.641c1.326 1.422 2.011 3.257 2.057 5.184l-1.782-.092-.046.55c-.091 1.652-.777 3.166-2.011 4.267l.731.78c1.28-1.193 2.103-2.752 2.285-4.45l1.829.092.045-.55a9.235 9.235 0 0 0-2.33-6.515l-.778.734z"/>
    </g>
</svg>
