<svg xmlns="http://www.w3.org/2000/svg" width="71" height="71" viewBox="0 0 71 71">
    <g fill="#fff" data-name="Vector">
        <path d="M65.015 46.03c-2.527 7.237-7.582 13.027-14.261 16.827l-3.07-6.333-1.985.905c-5.776 2.714-12.456 3.076-18.413.905l-1.444 3.98c6.498 2.353 13.358 2.172 19.857-.18l3.07 6.514 1.985-.905c8.665-3.98 14.983-11.219 18.233-20.085l-3.972-1.629zM20.245 8.03l3.07 6.333 1.985-.724c5.777-2.714 12.456-3.076 18.413-.904l1.444-3.981C38.66 6.4 31.8 6.4 25.3 8.934L22.23 2.422l-1.986.904A34.698 34.698 0 0 0 2.193 23.411l3.972 1.447C8.692 17.62 13.746 11.83 20.245 8.03z"/>
        <path d="M50.573 8.03L46.783 14l1.804 1.086c2.889 1.81 5.236 4.343 7.04 7.057l-7.942-2.714-27.62 13.933 14.622 5.247-19.857 9.952c-1.444-2.352-2.527-5.066-3.25-7.78l-3.79.723c1.444 6.695 5.235 12.667 10.65 16.648l-3.971 6.152 1.805 1.086C22.051 69.19 28.73 71 35.409 71c2.528 0 5.055-.362 7.582-.905l-.902-4.162c-7.402 1.629-15.164.543-21.663-3.257l3.791-5.97-1.805-1.087c-2.889-1.81-5.416-4.342-7.221-7.057l7.943 2.896 27.98-14.114-14.621-5.248 19.496-9.59c1.444 2.352 2.527 5.066 3.25 7.78l4.151-.904c-1.444-6.695-5.235-12.667-10.65-16.647l3.79-5.972-1.805-1.085C46.782.61 37.215-1.198 28.008.792l.903 3.98c7.401-1.628 15.163-.361 21.662 3.258z"/>
        <path d="M12.483 56.524C7.248 50.914 4.36 43.677 4.18 36.077l7.04.362.181-2.172c.361-6.514 3.069-12.485 7.943-16.828l-2.888-3.076C11.4 19.068 8.15 25.22 7.429 31.915l-7.221-.362-.18 2.353c-.362 9.409 2.888 18.456 9.206 25.513l3.25-2.895zM58.697 14.363c5.235 5.61 7.943 12.848 8.124 20.447l-7.04-.362-.181 2.172c-.361 6.514-3.069 12.485-7.943 16.828l2.888 3.076c5.055-4.705 8.304-10.857 9.026-17.552l7.221.362.18-2.171c.362-9.41-2.887-18.638-9.206-25.695l-3.069 2.895z"/>
    </g>
</svg>
