<svg xmlns="http://www.w3.org/2000/svg" width="65" height="65" viewBox="0 0 65 65">
    <g fill="#1E1E1E" data-name="Vector">
        <path d="M59.52 42.14c-2.313 6.626-6.94 11.927-13.055 15.405l-2.81-5.798-1.818.829c-5.288 2.485-11.403 2.816-16.857.828l-1.322 3.644c5.95 2.154 12.23 1.988 18.18-.165l2.809 5.963 1.818-.828c7.933-3.644 13.717-10.27 16.692-18.388l-3.636-1.49zM18.534 7.351l2.81 5.798 1.818-.662c5.289-2.485 11.403-2.816 16.857-.829l1.322-3.644c-5.95-2.154-12.23-2.154-18.18.166l-2.809-5.964-1.818.828A31.766 31.766 0 0 0 2.008 21.432l3.636 1.326c2.313-6.627 6.94-11.928 12.89-15.407z"/>
        <path d="M46.3 7.351l-3.471 5.467 1.652.994c2.645 1.657 4.793 3.976 6.446 6.46l-7.272-2.484L18.37 30.543l13.387 4.804-18.18 9.111c-1.322-2.153-2.313-4.638-2.974-7.123l-3.47.663c1.321 6.13 4.792 11.596 9.75 15.24l-3.636 5.633 1.653.994C20.187 63.343 26.302 65 32.417 65c2.314 0 4.627-.331 6.941-.828l-.826-3.81c-6.776 1.49-13.882.497-19.832-2.982l3.47-5.467-1.652-.994c-2.645-1.656-4.958-3.976-6.61-6.46l7.27 2.65 25.617-12.921-13.386-4.804 17.849-8.78c1.322 2.154 2.313 4.638 2.974 7.123l3.801-.828c-1.322-6.13-4.792-11.596-9.75-15.24l3.47-5.467-1.652-.994C42.829.559 34.07-1.097 25.64.725l.826 3.645C33.243 2.879 40.35 4.038 46.3 7.35z"/>
        <path d="M11.428 51.747c-4.792-5.135-7.437-11.761-7.602-18.719l6.445.331.166-1.987c.33-5.964 2.81-11.43 7.271-15.406l-2.644-2.817c-4.627 4.307-7.602 9.94-8.263 16.07l-6.61-.332-.166 2.153c-.33 8.614 2.644 16.897 8.428 23.358l2.975-2.65zM53.737 13.15c4.793 5.135 7.272 11.761 7.437 18.719l-6.445-.332-.166 1.988c-.33 5.964-2.81 11.43-7.271 15.406l2.644 2.816c4.627-4.307 7.602-9.939 8.263-16.068l6.61.331.166-1.988c.33-8.614-2.644-17.063-8.428-23.523l-2.81 2.65z"/>
    </g>
</svg>
